# xmcd
#
# Track frame offsets: 
#        150
#        24825
#        51835
#        73530
#        94903
#        125823
#        146473
#        182758
#        211308
#        230265
#
# Disc length: 3407 seconds
#
# Revision: 2
# Processed by: cddbd v1.5.2PL0 Copyright (c) Steve Scherf et al.
# Submitted via: ExactAudioCopy v1.0b3
#
DISCID=890d4d0a
DTITLE=Vu Khanh - Gui Toi Em
DYEAR=1991
DGENRE=
TTITLE0=Tinh khuc chien truong
TTITLE1=Nuoc non ngan dam ra di
TTITLE2=Vien du
TTITLE3=1954 cha bo que, 1975 con bo nuoc
TTITLE4=Doi mat nguoi Son Tay
TTITLE5=Noi long nguoi di
TTITLE6=LK Song Huong, Ve mien Trung, Que ngheo
TTITLE7=Ho nhu
TTITLE8=Ky vat cho em
TTITLE9=Ai tro ve xu Viet
EXTD=
EXTT0=
EXTT1=
EXTT2=
EXTT3=
EXTT4=
EXTT5=
EXTT6=
EXTT7=
EXTT8=
EXTT9=
PLAYORDER=
